<svg width="16" height="17" viewBox="0 0 16 17" fill="none" xmlns="http://www.w3.org/2000/svg">
<path d="M15.5596 8C15.5596 8.19698 15.5208 8.39204 15.4454 8.57403C15.37 8.75601 15.2595 8.92137 15.1202 9.06066C14.9809 9.19995 14.8156 9.31044 14.6336 9.38582C14.4516 9.4612 14.2566 9.5 14.0596 9.5C13.8626 9.5 13.6675 9.4612 13.4855 9.38582C13.3036 9.31044 13.1382 9.19995 12.9989 9.06066C12.8596 8.92137 12.7491 8.75601 12.6738 8.57403C12.5984 8.39204 12.5596 8.19698 12.5596 8V2C12.5596 1.60218 12.7176 1.22064 12.9989 0.939341C13.2802 0.658036 13.6617 0.5 14.0596 0.5C14.4574 0.5 14.8389 0.658036 15.1202 0.939341C15.4015 1.22064 15.5596 1.60218 15.5596 2V8ZM11.5596 8.167V2.737C11.5597 2.36534 11.4564 2.00098 11.261 1.6848C11.0656 1.36862 10.786 1.11313 10.4536 0.947001L10.4036 0.922001C9.84868 0.64467 9.2369 0.500197 8.61657 0.5H3.20057C2.73804 0.499817 2.28975 0.659952 1.93202 0.95314C1.57428 1.24633 1.32923 1.65444 1.23857 2.108L0.0385704 8.108C-0.0194197 8.39813 -0.0123167 8.69751 0.0593662 8.98456C0.131049 9.27161 0.265524 9.53918 0.453102 9.76799C0.64068 9.99679 0.876687 10.1811 1.14411 10.3077C1.41153 10.4343 1.7037 10.5 1.99957 10.5H5.55957V14.5C5.55957 15.0304 5.77028 15.5391 6.14536 15.9142C6.52043 16.2893 7.02914 16.5 7.55957 16.5C7.82479 16.5 8.07914 16.3946 8.26668 16.2071C8.45421 16.0196 8.55957 15.7652 8.55957 15.5V14.833C8.55957 13.9675 8.84028 13.1254 9.35957 12.433L10.7596 10.567C11.2789 9.87462 11.5596 9.03248 11.5596 8.167Z" fill="#FF9762"/>
</svg>
