<svg width="16" height="17" viewBox="0 0 16 17" fill="none" xmlns="http://www.w3.org/2000/svg">
<path d="M0 9C-2.93527e-09 8.80302 0.0387987 8.60796 0.114181 8.42597C0.189563 8.24399 0.300052 8.07863 0.43934 7.93934C0.578628 7.80005 0.743986 7.68956 0.925975 7.61418C1.10796 7.5388 1.30302 7.5 1.5 7.5C1.69698 7.5 1.89204 7.5388 2.07403 7.61418C2.25601 7.68956 2.42137 7.80005 2.56066 7.93934C2.69995 8.07863 2.81044 8.24399 2.88582 8.42597C2.9612 8.60796 3 8.80302 3 9V15C3 15.3978 2.84196 15.7794 2.56066 16.0607C2.27936 16.342 1.89782 16.5 1.5 16.5C1.10218 16.5 0.720644 16.342 0.43934 16.0607C0.158035 15.7794 5.92805e-09 15.3978 0 15V9ZM4 8.833V14.263C3.99983 14.6347 4.10322 14.999 4.29858 15.3152C4.49394 15.6314 4.77353 15.8869 5.106 16.053L5.156 16.078C5.71089 16.3553 6.32267 16.4998 6.943 16.5H12.359C12.8215 16.5002 13.2698 16.34 13.6276 16.0469C13.9853 15.7537 14.2303 15.3456 14.321 14.892L15.521 8.892C15.579 8.60187 15.5719 8.30249 15.5002 8.01544C15.4285 7.72839 15.294 7.46082 15.1065 7.23201C14.9189 7.00321 14.6829 6.81887 14.4155 6.69229C14.148 6.5657 13.8559 6.50003 13.56 6.5H10V2.5C10 1.96957 9.78929 1.46086 9.41421 1.08579C9.03914 0.710714 8.53043 0.5 8 0.5C7.73478 0.5 7.48043 0.605357 7.29289 0.792893C7.10536 0.98043 7 1.23478 7 1.5V2.167C7 3.03248 6.71929 3.87462 6.2 4.567L4.8 6.433C4.28071 7.12538 4 7.96752 4 8.833Z" fill="#759AFC"/>
</svg>
