<svg width="590" height="428" version="1.1" xmlns="http://www.w3.org/2000/svg" desc="Created with imagetracer.js version 1.2.6" ><path fill="rgb(74,74,84)" stroke="rgb(74,74,84)" stroke-width="1" opacity="1" d="M 207.5 178 Q 219.4 179.6 225 187.5 Q 231 194.5 233 205.5 L 233 223.5 Q 229.9 239.9 218.5 248 Q 214 252 204.5 251 Q 194.6 248.9 190 241.5 L 183 226.5 L 182 208.5 L 185 196.5 L 193.5 184 L 201.5 179 Q 206.3 180.3 207.5 178 Z " /><path fill="rgb(74,74,84)" stroke="rgb(74,74,84)" stroke-width="1" opacity="1" d="M 383.5 178 Q 396.4 179.6 402 188.5 Q 407.1 195.4 409 205.5 L 409 223.5 Q 405.9 239.9 394.5 248 Q 390.1 252 380.5 251 Q 370.6 248.9 366 241.5 L 359 226.5 L 358 208.5 L 362 194.5 L 368 185 L 377.5 179 Q 382.3 180.3 383.5 178 Z " /><path fill="rgb(242,244,252)" stroke="rgb(242,244,252)" stroke-width="1" opacity="1" d="M 208.5 14 L 211 14.5 L 208.5 15 L 208.5 14 Z " /><path fill="rgb(242,244,252)" stroke="rgb(242,244,252)" stroke-width="1" opacity="1" d="M 385.5 14 L 389 14.5 L 385.5 15 L 385.5 14 Z " /><path fill="rgb(242,244,252)" stroke="rgb(242,244,252)" stroke-width="1" opacity="1" d="M 121.5 47 L 120.5 49 L 121.5 47 Z " /><path fill="rgb(242,244,252)" stroke="rgb(242,244,252)" stroke-width="1" opacity="1" d="M 117.5 50 L 115.5 53 L 117.5 50 Z " /><path fill="rgb(242,244,252)" stroke="rgb(242,244,252)" stroke-width="1" opacity="1" d="M 481.5 52 L 482.5 54 L 481.5 52 Z " /><path fill="rgb(242,244,252)" stroke="rgb(242,244,252)" stroke-width="1" opacity="1" d="M 111.5 55 L 109.5 58 L 111.5 55 Z " /><path fill="rgb(242,244,252)" stroke="rgb(242,244,252)" stroke-width="1" opacity="1" d="M 487.5 57 L 492.5 63 L 487.5 57 Z " /><path fill="rgb(242,244,252)" stroke="rgb(242,244,252)" stroke-width="1" opacity="1" d="M 499.5 69 L 504.5 75 L 499.5 69 Z " /><path fill="rgb(242,244,252)" stroke="rgb(242,244,252)" stroke-width="1" opacity="1" d="M 92.5 74 L 90.5 77 L 92.5 74 Z " /><path fill="rgb(242,244,252)" stroke="rgb(242,244,252)" stroke-width="1" opacity="1" d="M 507.5 78 L 509.5 81 L 507.5 78 Z " /><path fill="rgb(242,244,252)" stroke="rgb(242,244,252)" stroke-width="1" opacity="1" d="M 86.5 81 L 85.5 83 L 86.5 81 Z " /><path fill="rgb(242,244,252)" stroke="rgb(242,244,252)" stroke-width="1" opacity="1" d="M 511.5 83 L 512.5 85 L 511.5 83 Z " /><path fill="rgb(242,244,252)" stroke="rgb(242,244,252)" stroke-width="1" opacity="1" d="M 83.5 85 L 82.5 87 L 83.5 85 Z " /><path fill="rgb(242,244,252)" stroke="rgb(242,244,252)" stroke-width="1" opacity="1" d="M 361.5 85 L 364 85.5 L 361.5 86 L 361.5 85 Z " /><path fill="rgb(242,244,252)" stroke="rgb(242,244,252)" stroke-width="1" opacity="1" d="M 80.5 89 L 79.5 91 L 80.5 89 Z " /><path fill="rgb(242,244,252)" stroke="rgb(242,244,252)" stroke-width="1" opacity="1" d="M 517.5 91 L 518.5 93 L 517.5 91 Z " /><path fill="rgb(242,244,252)" stroke="rgb(242,244,252)" stroke-width="1" opacity="1" d="M 519.5 94 L 520.5 96 L 519.5 94 Z " /><path fill="rgb(242,244,252)" stroke="rgb(242,244,252)" stroke-width="1" opacity="1" d="M 521.5 97 L 522.5 99 L 521.5 97 Z " /><path fill="rgb(242,244,252)" stroke="rgb(242,244,252)" stroke-width="1" opacity="1" d="M 176.5 104 L 175.5 106 L 176.5 104 Z " /><path fill="rgb(242,244,252)" stroke="rgb(242,244,252)" stroke-width="1" opacity="1" d="M 173.5 106 L 172.5 108 L 173.5 106 Z " /><path fill="rgb(242,244,252)" stroke="rgb(242,244,252)" stroke-width="1" opacity="1" d="M 170.5 108 L 169.5 110 L 170.5 108 Z " /><path fill="rgb(242,244,252)" stroke="rgb(242,244,252)" stroke-width="1" opacity="1" d="M 528.5 108 L 531 108.5 L 528.5 109 L 528.5 108 Z " /><path fill="rgb(242,244,252)" stroke="rgb(242,244,252)" stroke-width="1" opacity="1" d="M 427.5 109 L 428.5 111 L 427.5 109 Z " /><path fill="rgb(242,244,252)" stroke="rgb(242,244,252)" stroke-width="1" opacity="1" d="M 166.5 111 L 165.5 113 L 166.5 111 Z " /><path fill="rgb(242,244,252)" stroke="rgb(242,244,252)" stroke-width="1" opacity="1" d="M 431.5 112 L 432.5 114 L 431.5 112 Z " /><path fill="rgb(242,244,252)" stroke="rgb(242,244,252)" stroke-width="1" opacity="1" d="M 162.5 114 L 160.5 117 L 162.5 114 Z " /><path fill="rgb(242,244,252)" stroke="rgb(242,244,252)" stroke-width="1" opacity="1" d="M 436.5 116 L 438.5 119 L 436.5 116 Z " /><path fill="rgb(242,244,252)" stroke="rgb(242,244,252)" stroke-width="1" opacity="1" d="M 27.5 118 L 21.5 125 L 27.5 118 Z " /><path fill="rgb(242,244,252)" stroke="rgb(242,244,252)" stroke-width="1" opacity="1" d="M 155.5 120 L 148.5 128 L 155.5 120 Z " /><path fill="rgb(242,244,252)" stroke="rgb(242,244,252)" stroke-width="1" opacity="1" d="M 571.5 120 L 573.5 123 L 571.5 120 Z " /><path fill="rgb(242,244,252)" stroke="rgb(242,244,252)" stroke-width="1" opacity="1" d="M 576.5 126 L 577.5 128 L 576.5 126 Z " /><path fill="rgb(242,244,252)" stroke="rgb(242,244,252)" stroke-width="1" opacity="1" d="M 578.5 129 L 579.5 131 L 578.5 129 Z " /><path fill="rgb(242,244,252)" stroke="rgb(242,244,252)" stroke-width="1" opacity="1" d="M 450.5 130 L 452.5 133 L 450.5 130 Z " /><path fill="rgb(242,244,252)" stroke="rgb(242,244,252)" stroke-width="1" opacity="1" d="M 143.5 133 L 142.5 135 L 143.5 133 Z " /><path fill="rgb(242,244,252)" stroke="rgb(242,244,252)" stroke-width="1" opacity="1" d="M 455.5 136 L 456.5 138 L 455.5 136 Z " /><path fill="rgb(242,244,252)" stroke="rgb(242,244,252)" stroke-width="1" opacity="1" d="M 139.5 138 L 138.5 140 L 139.5 138 Z " /><path fill="rgb(242,244,252)" stroke="rgb(242,244,252)" stroke-width="1" opacity="1" d="M 458.5 140 L 459.5 142 L 458.5 140 Z " /><path fill="rgb(242,244,252)" stroke="rgb(242,244,252)" stroke-width="1" opacity="1" d="M 220.5 182 L 221.5 184 L 220.5 182 Z " /><path fill="rgb(242,244,252)" stroke="rgb(242,244,252)" stroke-width="1" opacity="1" d="M 396.5 182 L 397.5 184 L 396.5 182 Z " /><path fill="rgb(242,244,252)" stroke="rgb(242,244,252)" stroke-width="1" opacity="1" d="M 192.5 184 L 191.5 186 L 192.5 184 Z " /><path fill="rgb(242,244,252)" stroke="rgb(242,244,252)" stroke-width="1" opacity="1" d="M 224.5 186 L 225.5 188 L 224.5 186 Z " /><path fill="rgb(242,244,252)" stroke="rgb(242,244,252)" stroke-width="1" opacity="1" d="M 400.5 186 L 401.5 188 L 400.5 186 Z " /><path fill="rgb(242,244,252)" stroke="rgb(242,244,252)" stroke-width="1" opacity="1" d="M 112.5 209 L 113 212.5 L 112 212.5 L 112.5 209 Z " /><path fill="rgb(242,244,252)" stroke="rgb(242,244,252)" stroke-width="1" opacity="1" d="M 357.5 211 L 358 217.5 L 357 217.5 L 357.5 211 Z " /><path fill="rgb(242,244,252)" stroke="rgb(242,244,252)" stroke-width="1" opacity="1" d="M 181.5 216 L 182 218.5 L 181 218.5 L 181.5 216 Z " /><path fill="rgb(242,244,252)" stroke="rgb(242,244,252)" stroke-width="1" opacity="1" d="M 484.5 218 L 485 221.5 L 484 221.5 L 484.5 218 Z " /><path fill="rgb(242,244,252)" stroke="rgb(242,244,252)" stroke-width="1" opacity="1" d="M 112.5 226 L 113 229.5 L 112 229.5 L 112.5 226 Z " /><path fill="rgb(242,244,252)" stroke="rgb(242,244,252)" stroke-width="1" opacity="1" d="M 483.5 234 L 484 236.5 L 483 236.5 L 483.5 234 Z " /><path fill="rgb(242,244,252)" stroke="rgb(242,244,252)" stroke-width="1" opacity="1" d="M 189.5 241 L 190.5 243 L 189.5 241 Z " /><path fill="rgb(242,244,252)" stroke="rgb(242,244,252)" stroke-width="1" opacity="1" d="M 366.5 242 L 367.5 244 L 366.5 242 Z " /><path fill="rgb(242,244,252)" stroke="rgb(242,244,252)" stroke-width="1" opacity="1" d="M 369.5 245 L 370.5 247 L 369.5 245 Z " /><path fill="rgb(242,244,252)" stroke="rgb(242,244,252)" stroke-width="1" opacity="1" d="M 206.5 251 L 210 251.5 L 206.5 252 L 206.5 251 Z " /><path fill="rgb(242,244,252)" stroke="rgb(242,244,252)" stroke-width="1" opacity="1" d="M 382.5 251 L 386 251.5 L 382.5 252 L 382.5 251 Z " /><path fill="rgb(242,244,252)" stroke="rgb(242,244,252)" stroke-width="1" opacity="1" d="M 17.5 273 L 18.5 275 L 17.5 273 Z " /><path fill="rgb(242,244,252)" stroke="rgb(242,244,252)" stroke-width="1" opacity="1" d="M 19.5 276 L 21.5 279 L 19.5 276 Z " /><path fill="rgb(242,244,252)" stroke="rgb(242,244,252)" stroke-width="1" opacity="1" d="M 575.5 278 L 568.5 286 L 575.5 278 Z " /><path fill="rgb(242,244,252)" stroke="rgb(242,244,252)" stroke-width="1" opacity="1" d="M 28.5 285 L 29.5 287 L 28.5 285 Z " /><path fill="rgb(242,244,252)" stroke="rgb(242,244,252)" stroke-width="1" opacity="1" d="M 132.5 291 L 133.5 293 L 132.5 291 Z " /><path fill="rgb(242,244,252)" stroke="rgb(242,244,252)" stroke-width="1" opacity="1" d="M 134.5 294 L 135.5 296 L 134.5 294 Z " /><path fill="rgb(242,244,252)" stroke="rgb(242,244,252)" stroke-width="1" opacity="1" d="M 52.5 295 L 55 296.5 L 53.5 296 L 52.5 295 Z " /><path fill="rgb(242,244,252)" stroke="rgb(242,244,252)" stroke-width="1" opacity="1" d="M 461.5 295 L 460.5 297 L 461.5 295 Z " /><path fill="rgb(242,244,252)" stroke="rgb(242,244,252)" stroke-width="1" opacity="1" d="M 542.5 295 L 545 295.5 L 542.5 296 L 542.5 295 Z " /><path fill="rgb(242,244,252)" stroke="rgb(242,244,252)" stroke-width="1" opacity="1" d="M 136.5 297 L 137.5 299 L 136.5 297 Z " /><path fill="rgb(242,244,252)" stroke="rgb(242,244,252)" stroke-width="1" opacity="1" d="M 139.5 301 L 140.5 303 L 139.5 301 Z " /><path fill="rgb(242,244,252)" stroke="rgb(242,244,252)" stroke-width="1" opacity="1" d="M 455.5 303 L 454.5 305 L 455.5 303 Z " /><path fill="rgb(242,244,252)" stroke="rgb(242,244,252)" stroke-width="1" opacity="1" d="M 142.5 305 L 144.5 308 L 142.5 305 Z " /><path fill="rgb(242,244,252)" stroke="rgb(242,244,252)" stroke-width="1" opacity="1" d="M 451.5 308 L 448.5 312 L 451.5 308 Z " /><path fill="rgb(242,244,252)" stroke="rgb(242,244,252)" stroke-width="1" opacity="1" d="M 151.5 315 L 152.5 317 L 151.5 315 Z " /><path fill="rgb(242,244,252)" stroke="rgb(242,244,252)" stroke-width="1" opacity="1" d="M 440.5 319 L 437.5 323 L 440.5 319 Z " /><path fill="rgb(242,244,252)" stroke="rgb(242,244,252)" stroke-width="1" opacity="1" d="M 159.5 322 L 161.5 325 L 159.5 322 Z " /><path fill="rgb(242,244,252)" stroke="rgb(242,244,252)" stroke-width="1" opacity="1" d="M 433.5 325 L 432.5 327 L 433.5 325 Z " /><path fill="rgb(242,244,252)" stroke="rgb(242,244,252)" stroke-width="1" opacity="1" d="M 72.5 333 L 73.5 335 L 72.5 333 Z " /><path fill="rgb(242,244,252)" stroke="rgb(242,244,252)" stroke-width="1" opacity="1" d="M 517.5 343 L 516.5 345 L 517.5 343 Z " /><path fill="rgb(242,244,252)" stroke="rgb(242,244,252)" stroke-width="1" opacity="1" d="M 80.5 345 L 81.5 347 L 80.5 345 Z " /><path fill="rgb(242,244,252)" stroke="rgb(242,244,252)" stroke-width="1" opacity="1" d="M 83.5 349 L 84.5 351 L 83.5 349 Z " /><path fill="rgb(242,244,252)" stroke="rgb(242,244,252)" stroke-width="1" opacity="1" d="M 511.5 351 L 510.5 353 L 511.5 351 Z " /><path fill="rgb(242,244,252)" stroke="rgb(242,244,252)" stroke-width="1" opacity="1" d="M 87.5 354 L 88.5 356 L 87.5 354 Z " /><path fill="rgb(242,244,252)" stroke="rgb(242,244,252)" stroke-width="1" opacity="1" d="M 235.5 354 L 238 354.5 L 235.5 355 L 235.5 354 Z " /><path fill="rgb(242,244,252)" stroke="rgb(242,244,252)" stroke-width="1" opacity="1" d="M 359.5 354 L 362 354.5 L 359.5 355 L 359.5 354 Z " /><path fill="rgb(242,244,252)" stroke="rgb(242,244,252)" stroke-width="1" opacity="1" d="M 507.5 356 L 505.5 359 L 507.5 356 Z " /><path fill="rgb(242,244,252)" stroke="rgb(242,244,252)" stroke-width="1" opacity="1" d="M 92.5 360 L 97.5 366 L 92.5 360 Z " /><path fill="rgb(242,244,252)" stroke="rgb(242,244,252)" stroke-width="1" opacity="1" d="M 500.5 364 L 491.5 374 L 500.5 364 Z " /><path fill="rgb(242,244,252)" stroke="rgb(242,244,252)" stroke-width="1" opacity="1" d="M 104.5 372 L 108.5 377 L 104.5 372 Z " /><path fill="rgb(242,244,252)" stroke="rgb(242,244,252)" stroke-width="1" opacity="1" d="M 485.5 378 L 483.5 381 L 485.5 378 Z " /><path fill="rgb(242,244,252)" stroke="rgb(242,244,252)" stroke-width="1" opacity="1" d="M 113.5 380 L 115.5 383 L 113.5 380 Z " /><path fill="rgb(242,244,252)" stroke="rgb(242,244,252)" stroke-width="1" opacity="1" d="M 479.5 383 L 478.5 385 L 479.5 383 Z " /><path fill="rgb(242,244,252)" stroke="rgb(242,244,252)" stroke-width="1" opacity="1" d="M 118.5 384 L 119.5 386 L 118.5 384 Z " /><path fill="rgb(242,244,252)" stroke="rgb(242,244,252)" stroke-width="1" opacity="1" d="M 475.5 386 L 474.5 388 L 475.5 386 Z " /><path fill="rgb(242,244,252)" stroke="rgb(242,244,252)" stroke-width="1" opacity="1" d="M 122.5 387 L 123.5 389 L 122.5 387 Z " /><path fill="rgb(242,244,252)" stroke="rgb(242,244,252)" stroke-width="1" opacity="1" d="M 214.5 420 L 383 420.5 L 214.5 421 L 214.5 420 Z " /><path fill="rgb(135,155,245)" stroke="rgb(135,155,245)" stroke-width="1" opacity="1" d="M 205.5 15 L 391.5 15 L 392.5 16 L 405.5 17 L 433.5 25 L 458.5 37 Q 484.5 52.5 504 74.5 Q 517.8 90.2 528.5 109 L 543.5 108 L 558.5 112 L 573 122.5 Q 581.5 131.5 585 145.5 L 585 257.5 Q 581.1 275.6 568.5 285 L 554.5 293 L 542.5 295 L 541 296.5 Q 524.6 343.1 491.5 373 Q 471.2 392.2 444.5 405 L 420.5 414 L 396.5 419 L 388.5 419 L 387.5 420 L 208.5 420 L 176.5 414 Q 156.6 408.4 140.5 399 Q 113.1 383.4 93 360.5 Q 68 333.3 55 295 Q 30.9 292.9 20 276.5 L 14 265.5 L 11 253.5 L 11 149.5 Q 14.6 128.6 28.5 118 Q 39.9 107.4 62.5 108 Q 63.8 110.3 68.5 109 Q 85.9 77.4 112.5 55 Q 130.6 39.6 153.5 29 L 178.5 20 L 205.5 15 Z M 242 84 L 241 85 L 230 85 L 214 88 L 196 94 Q 175 103 160 116 Q 141 132 128 155 L 117 181 L 112 206 L 112 235 L 116 256 Q 125 288 145 310 Q 160 326 180 338 Q 193 346 211 351 L 232 355 L 366 355 Q 367 353 373 354 Q 416 345 443 319 Q 462 301 474 275 L 482 250 L 484 239 L 484 231 L 485 230 L 484 201 L 481 186 L 476 171 Q 466 146 450 129 Q 424 98 379 87 L 368 86 L 367 85 L 356 85 L 355 84 L 242 84 Z " /><path fill="rgb(135,155,245)" stroke="rgb(135,155,245)" stroke-width="1" opacity="1" d="M 370.5 183 L 369.5 185 L 370.5 183 Z " /><path fill="rgb(135,155,245)" stroke="rgb(135,155,245)" stroke-width="1" opacity="1" d="M 191.5 186 L 190.5 188 L 191.5 186 Z " /><path fill="rgb(135,155,245)" stroke="rgb(135,155,245)" stroke-width="1" opacity="1" d="M 367.5 186 L 366.5 188 L 367.5 186 Z " /><path fill="rgb(135,155,245)" stroke="rgb(135,155,245)" stroke-width="1" opacity="1" d="M 233.5 211 L 234 217.5 L 233 217.5 L 233.5 211 Z " /><path fill="rgb(135,155,245)" stroke="rgb(135,155,245)" stroke-width="1" opacity="1" d="M 409.5 211 L 410 218.5 L 409 218.5 L 409.5 211 Z " /><path fill="rgb(135,155,245)" stroke="rgb(135,155,245)" stroke-width="1" opacity="1" d="M 224.5 242 L 221.5 246 L 224.5 242 Z " /><path fill="rgb(135,155,245)" stroke="rgb(135,155,245)" stroke-width="1" opacity="1" d="M 400.5 242 L 397.5 246 L 400.5 242 Z " /><path fill="rgb(255,255,255)" stroke="rgb(255,255,255)" stroke-width="1" opacity="1" d="M 0 0 L 590 0 L 590 428 L 0 428 L 0 0 Z M 209 14 L 180 19 L 157 27 Q 131 38 112 55 Q 85 76 69 108 Q 68 110 67 108 Q 53 106 45 109 Q 34 112 28 118 Q 15 128 11 146 L 11 259 L 19 277 Q 30 292 54 296 L 69 329 Q 79 346 92 361 Q 115 387 149 404 L 178 415 L 196 419 L 214 420 L 215 421 L 383 421 L 384 420 L 402 419 Q 457 407 492 374 Q 525 343 542 296 Q 558 295 569 286 Q 582 276 586 256 L 586 148 Q 583 132 574 123 Q 566 113 553 109 L 549 108 L 529 108 Q 518 90 505 75 Q 484 51 457 35 Q 435 23 409 17 L 398 15 L 390 15 L 389 14 L 209 14 Z " /><path fill="rgb(255,255,255)" stroke="rgb(255,255,255)" stroke-width="1" opacity="1" d="M 235.5 85 L 360.5 85 L 361.5 86 L 375.5 87 Q 394.8 91.2 410.5 99 Q 433.4 111.1 450 129.5 Q 470.2 151.8 480 184.5 L 484 206.5 L 484 233.5 L 480 255.5 L 474 272.5 Q 462 300 441.5 319 Q 415.8 343.8 374.5 353 L 359.5 354 L 358.5 355 L 238.5 355 L 209.5 350 L 188.5 342 Q 162.8 329.2 145 308.5 Q 130 291.5 121 268.5 L 114 243.5 L 113 226.5 L 112 225.5 L 112 213.5 L 113 212.5 L 113 202.5 L 115 191.5 L 122 168.5 Q 135.3 137.3 159.5 117 Q 174.1 104.6 192.5 96 L 212.5 89 L 235.5 85 Z M 203 178 L 193 184 L 184 198 L 181 212 L 183 230 L 189 242 Q 195 250 207 252 Q 215 252 220 248 L 227 241 L 232 231 L 234 222 Q 236 199 226 188 L 216 179 Q 211 177 203 178 Z M 379 178 L 368 184 L 360 198 L 357 212 L 358 226 Q 360 236 366 243 Q 371 250 383 252 Q 391 252 396 248 L 406 236 L 410 222 Q 412 199 402 188 L 392 179 Q 387 177 379 178 Z " /><path fill="rgb(200,208,246)" stroke="rgb(200,208,246)" stroke-width="1" opacity="1" d="M 211.5 14 L 385 14.5 L 211.5 15 L 211.5 14 Z " /><path fill="rgb(200,208,246)" stroke="rgb(200,208,246)" stroke-width="1" opacity="1" d="M 201.5 15 L 205 15.5 L 201.5 16 L 201.5 15 Z " /><path fill="rgb(200,208,246)" stroke="rgb(200,208,246)" stroke-width="1" opacity="1" d="M 392.5 15 L 396 15.5 L 392.5 16 L 392.5 15 Z " /><path fill="rgb(200,208,246)" stroke="rgb(200,208,246)" stroke-width="1" opacity="1" d="M 194.5 16 L 197 16.5 L 194.5 17 L 194.5 16 Z " /><path fill="rgb(200,208,246)" stroke="rgb(200,208,246)" stroke-width="1" opacity="1" d="M 123.5 46 L 122.5 48 L 123.5 46 Z " /><path fill="rgb(200,208,246)" stroke="rgb(200,208,246)" stroke-width="1" opacity="1" d="M 474.5 47 L 475.5 49 L 474.5 47 Z " /><path fill="rgb(200,208,246)" stroke="rgb(200,208,246)" stroke-width="1" opacity="1" d="M 119.5 49 L 118.5 51 L 119.5 49 Z " /><path fill="rgb(200,208,246)" stroke="rgb(200,208,246)" stroke-width="1" opacity="1" d="M 478.5 50 L 480.5 53 L 478.5 50 Z " /><path fill="rgb(200,208,246)" stroke="rgb(200,208,246)" stroke-width="1" opacity="1" d="M 114.5 53 L 113.5 55 L 114.5 53 Z " /><path fill="rgb(200,208,246)" stroke="rgb(200,208,246)" stroke-width="1" opacity="1" d="M 483.5 54 L 486.5 58 L 483.5 54 Z " /><path fill="rgb(200,208,246)" stroke="rgb(200,208,246)" stroke-width="1" opacity="1" d="M 108.5 58 L 93.5 74 L 108.5 58 Z " /><path fill="rgb(200,208,246)" stroke="rgb(200,208,246)" stroke-width="1" opacity="1" d="M 493.5 63 L 498.5 69 L 493.5 63 Z " /><path fill="rgb(200,208,246)" stroke="rgb(200,208,246)" stroke-width="1" opacity="1" d="M 504.5 75 L 506.5 78 L 504.5 75 Z " /><path fill="rgb(200,208,246)" stroke="rgb(200,208,246)" stroke-width="1" opacity="1" d="M 89.5 78 L 87.5 81 L 89.5 78 Z " /><path fill="rgb(200,208,246)" stroke="rgb(200,208,246)" stroke-width="1" opacity="1" d="M 509.5 81 L 510.5 83 L 509.5 81 Z " /><path fill="rgb(200,208,246)" stroke="rgb(200,208,246)" stroke-width="1" opacity="1" d="M 85.5 83 L 84.5 85 L 85.5 83 Z " /><path fill="rgb(200,208,246)" stroke="rgb(200,208,246)" stroke-width="1" opacity="1" d="M 241.5 84 L 355 84.5 L 241.5 85 L 241.5 84 Z " /><path fill="rgb(200,208,246)" stroke="rgb(200,208,246)" stroke-width="1" opacity="1" d="M 229.5 85 L 233 85.5 L 229.5 86 L 229.5 85 Z " /><path fill="rgb(200,208,246)" stroke="rgb(200,208,246)" stroke-width="1" opacity="1" d="M 364.5 85 L 367 85.5 L 364.5 86 L 364.5 85 Z " /><path fill="rgb(200,208,246)" stroke="rgb(200,208,246)" stroke-width="1" opacity="1" d="M 513.5 86 L 514.5 88 L 513.5 86 Z " /><path fill="rgb(200,208,246)" stroke="rgb(200,208,246)" stroke-width="1" opacity="1" d="M 82.5 87 L 81.5 89 L 82.5 87 Z " /><path fill="rgb(200,208,246)" stroke="rgb(200,208,246)" stroke-width="1" opacity="1" d="M 79.5 91 L 78.5 93 L 79.5 91 Z " /><path fill="rgb(200,208,246)" stroke="rgb(200,208,246)" stroke-width="1" opacity="1" d="M 77.5 94 L 76.5 96 L 77.5 94 Z " /><path fill="rgb(200,208,246)" stroke="rgb(200,208,246)" stroke-width="1" opacity="1" d="M 75.5 97 L 74.5 99 L 75.5 97 Z " /><path fill="rgb(200,208,246)" stroke="rgb(200,208,246)" stroke-width="1" opacity="1" d="M 69.5 107 L 68.5 109 L 69.5 107 Z " /><path fill="rgb(200,208,246)" stroke="rgb(200,208,246)" stroke-width="1" opacity="1" d="M 49.5 108 L 53 108.5 L 49.5 109 L 49.5 108 Z " /><path fill="rgb(200,208,246)" stroke="rgb(200,208,246)" stroke-width="1" opacity="1" d="M 63.5 108 L 66 108.5 L 63.5 109 L 63.5 108 Z " /><path fill="rgb(200,208,246)" stroke="rgb(200,208,246)" stroke-width="1" opacity="1" d="M 531.5 108 L 534 108.5 L 531.5 109 L 531.5 108 Z " /><path fill="rgb(200,208,246)" stroke="rgb(200,208,246)" stroke-width="1" opacity="1" d="M 544.5 108 L 547 108.5 L 544.5 109 L 544.5 108 Z " /><path fill="rgb(200,208,246)" stroke="rgb(200,208,246)" stroke-width="1" opacity="1" d="M 168.5 109 L 167.5 111 L 168.5 109 Z " /><path fill="rgb(200,208,246)" stroke="rgb(200,208,246)" stroke-width="1" opacity="1" d="M 429.5 110 L 430.5 112 L 429.5 110 Z " /><path fill="rgb(200,208,246)" stroke="rgb(200,208,246)" stroke-width="1" opacity="1" d="M 164.5 112 L 163.5 114 L 164.5 112 Z " /><path fill="rgb(200,208,246)" stroke="rgb(200,208,246)" stroke-width="1" opacity="1" d="M 433.5 113 L 435.5 116 L 433.5 113 Z " /><path fill="rgb(200,208,246)" stroke="rgb(200,208,246)" stroke-width="1" opacity="1" d="M 30.5 116 L 29.5 118 L 30.5 116 Z " /><path fill="rgb(200,208,246)" stroke="rgb(200,208,246)" stroke-width="1" opacity="1" d="M 159.5 116 L 156.5 120 L 159.5 116 Z " /><path fill="rgb(200,208,246)" stroke="rgb(200,208,246)" stroke-width="1" opacity="1" d="M 567.5 117 L 570.5 121 L 567.5 117 Z " /><path fill="rgb(200,208,246)" stroke="rgb(200,208,246)" stroke-width="1" opacity="1" d="M 440.5 119 L 449.5 129 L 440.5 119 Z " /><path fill="rgb(200,208,246)" stroke="rgb(200,208,246)" stroke-width="1" opacity="1" d="M 573.5 123 L 575.5 126 L 573.5 123 Z " /><path fill="rgb(200,208,246)" stroke="rgb(200,208,246)" stroke-width="1" opacity="1" d="M 20.5 126 L 19.5 128 L 20.5 126 Z " /><path fill="rgb(200,208,246)" stroke="rgb(200,208,246)" stroke-width="1" opacity="1" d="M 147.5 128 L 144.5 132 L 147.5 128 Z " /><path fill="rgb(200,208,246)" stroke="rgb(200,208,246)" stroke-width="1" opacity="1" d="M 18.5 129 L 17.5 131 L 18.5 129 Z " /><path fill="rgb(200,208,246)" stroke="rgb(200,208,246)" stroke-width="1" opacity="1" d="M 453.5 133 L 455.5 136 L 453.5 133 Z " /><path fill="rgb(200,208,246)" stroke="rgb(200,208,246)" stroke-width="1" opacity="1" d="M 141.5 135 L 140.5 137 L 141.5 135 Z " /><path fill="rgb(200,208,246)" stroke="rgb(200,208,246)" stroke-width="1" opacity="1" d="M 457.5 138 L 458.5 140 L 457.5 138 Z " /><path fill="rgb(200,208,246)" stroke="rgb(200,208,246)" stroke-width="1" opacity="1" d="M 135.5 143 L 134.5 145 L 135.5 143 Z " /><path fill="rgb(200,208,246)" stroke="rgb(200,208,246)" stroke-width="1" opacity="1" d="M 11.5 146 L 12 148.5 L 11 148.5 L 11.5 146 Z " /><path fill="rgb(200,208,246)" stroke="rgb(200,208,246)" stroke-width="1" opacity="1" d="M 585.5 149 L 586 253.5 L 585 253.5 L 585.5 149 Z " /><path fill="rgb(200,208,246)" stroke="rgb(200,208,246)" stroke-width="1" opacity="1" d="M 196.5 181 L 195.5 183 L 196.5 181 Z " /><path fill="rgb(200,208,246)" stroke="rgb(200,208,246)" stroke-width="1" opacity="1" d="M 222.5 184 L 223.5 186 L 222.5 184 Z " /><path fill="rgb(200,208,246)" stroke="rgb(200,208,246)" stroke-width="1" opacity="1" d="M 398.5 184 L 399.5 186 L 398.5 184 Z " /><path fill="rgb(200,208,246)" stroke="rgb(200,208,246)" stroke-width="1" opacity="1" d="M 482.5 194 L 483 196.5 L 482 196.5 L 482.5 194 Z " /><path fill="rgb(200,208,246)" stroke="rgb(200,208,246)" stroke-width="1" opacity="1" d="M 483.5 200 L 484 203.5 L 483 203.5 L 483.5 200 Z " /><path fill="rgb(200,208,246)" stroke="rgb(200,208,246)" stroke-width="1" opacity="1" d="M 112.5 205 L 113 208.5 L 112 208.5 L 112.5 205 Z " /><path fill="rgb(200,208,246)" stroke="rgb(200,208,246)" stroke-width="1" opacity="1" d="M 233.5 208 L 234 210.5 L 233 210.5 L 233.5 208 Z " /><path fill="rgb(200,208,246)" stroke="rgb(200,208,246)" stroke-width="1" opacity="1" d="M 409.5 208 L 410 210.5 L 409 210.5 L 409.5 208 Z " /><path fill="rgb(200,208,246)" stroke="rgb(200,208,246)" stroke-width="1" opacity="1" d="M 484.5 209 L 485 217.5 L 484 217.5 L 484.5 209 Z " /><path fill="rgb(200,208,246)" stroke="rgb(200,208,246)" stroke-width="1" opacity="1" d="M 181.5 213 L 182 215.5 L 181 215.5 L 181.5 213 Z " /><path fill="rgb(200,208,246)" stroke="rgb(200,208,246)" stroke-width="1" opacity="1" d="M 233.5 218 L 234 221.5 L 233 221.5 L 233.5 218 Z " /><path fill="rgb(200,208,246)" stroke="rgb(200,208,246)" stroke-width="1" opacity="1" d="M 409.5 219 L 410 221.5 L 409 221.5 L 409.5 219 Z " /><path fill="rgb(200,208,246)" stroke="rgb(200,208,246)" stroke-width="1" opacity="1" d="M 484.5 222 L 485 229.5 L 484 229.5 L 484.5 222 Z " /><path fill="rgb(200,208,246)" stroke="rgb(200,208,246)" stroke-width="1" opacity="1" d="M 112.5 230 L 113 234.5 L 112 234.5 L 112.5 230 Z " /><path fill="rgb(200,208,246)" stroke="rgb(200,208,246)" stroke-width="1" opacity="1" d="M 113.5 239 L 114 241.5 L 113 241.5 L 113.5 239 Z " /><path fill="rgb(200,208,246)" stroke="rgb(200,208,246)" stroke-width="1" opacity="1" d="M 191.5 243 L 193.5 246 L 191.5 243 Z " /><path fill="rgb(200,208,246)" stroke="rgb(200,208,246)" stroke-width="1" opacity="1" d="M 114.5 245 L 115 247.5 L 114 247.5 L 114.5 245 Z " /><path fill="rgb(200,208,246)" stroke="rgb(200,208,246)" stroke-width="1" opacity="1" d="M 396.5 246 L 395.5 248 L 396.5 246 Z " /><path fill="rgb(200,208,246)" stroke="rgb(200,208,246)" stroke-width="1" opacity="1" d="M 11.5 254 L 12 256.5 L 11 256.5 L 11.5 254 Z " /><path fill="rgb(200,208,246)" stroke="rgb(200,208,246)" stroke-width="1" opacity="1" d="M 576.5 276 L 575.5 278 L 576.5 276 Z " /><path fill="rgb(200,208,246)" stroke="rgb(200,208,246)" stroke-width="1" opacity="1" d="M 22.5 279 L 27.5 285 L 22.5 279 Z " /><path fill="rgb(200,208,246)" stroke="rgb(200,208,246)" stroke-width="1" opacity="1" d="M 567.5 285 L 566.5 287 L 567.5 285 Z " /><path fill="rgb(200,208,246)" stroke="rgb(200,208,246)" stroke-width="1" opacity="1" d="M 30.5 286 L 31.5 288 L 30.5 286 Z " /><path fill="rgb(200,208,246)" stroke="rgb(200,208,246)" stroke-width="1" opacity="1" d="M 467.5 286 L 466.5 288 L 467.5 286 Z " /><path fill="rgb(200,208,246)" stroke="rgb(200,208,246)" stroke-width="1" opacity="1" d="M 464.5 291 L 463.5 293 L 464.5 291 Z " /><path fill="rgb(200,208,246)" stroke="rgb(200,208,246)" stroke-width="1" opacity="1" d="M 460.5 297 L 459.5 299 L 460.5 297 Z " /><path fill="rgb(200,208,246)" stroke="rgb(200,208,246)" stroke-width="1" opacity="1" d="M 137.5 299 L 138.5 301 L 137.5 299 Z " /><path fill="rgb(200,208,246)" stroke="rgb(200,208,246)" stroke-width="1" opacity="1" d="M 457.5 301 L 456.5 303 L 457.5 301 Z " /><path fill="rgb(200,208,246)" stroke="rgb(200,208,246)" stroke-width="1" opacity="1" d="M 140.5 303 L 141.5 305 L 140.5 303 Z " /><path fill="rgb(200,208,246)" stroke="rgb(200,208,246)" stroke-width="1" opacity="1" d="M 454.5 305 L 452.5 308 L 454.5 305 Z " /><path fill="rgb(200,208,246)" stroke="rgb(200,208,246)" stroke-width="1" opacity="1" d="M 145.5 309 L 150.5 315 L 145.5 309 Z " /><path fill="rgb(200,208,246)" stroke="rgb(200,208,246)" stroke-width="1" opacity="1" d="M 447.5 313 L 442.5 319 L 447.5 313 Z " /><path fill="rgb(200,208,246)" stroke="rgb(200,208,246)" stroke-width="1" opacity="1" d="M 153.5 317 L 158.5 323 L 153.5 317 Z " /><path fill="rgb(200,208,246)" stroke="rgb(200,208,246)" stroke-width="1" opacity="1" d="M 436.5 323 L 434.5 326 L 436.5 323 Z " /><path fill="rgb(200,208,246)" stroke="rgb(200,208,246)" stroke-width="1" opacity="1" d="M 162.5 325 L 163.5 327 L 162.5 325 Z " /><path fill="rgb(200,208,246)" stroke="rgb(200,208,246)" stroke-width="1" opacity="1" d="M 431.5 327 L 430.5 329 L 431.5 327 Z " /><path fill="rgb(200,208,246)" stroke="rgb(200,208,246)" stroke-width="1" opacity="1" d="M 166.5 328 L 167.5 330 L 166.5 328 Z " /><path fill="rgb(200,208,246)" stroke="rgb(200,208,246)" stroke-width="1" opacity="1" d="M 427.5 330 L 426.5 332 L 427.5 330 Z " /><path fill="rgb(200,208,246)" stroke="rgb(200,208,246)" stroke-width="1" opacity="1" d="M 170.5 331 L 171.5 333 L 170.5 331 Z " /><path fill="rgb(200,208,246)" stroke="rgb(200,208,246)" stroke-width="1" opacity="1" d="M 424.5 332 L 423.5 334 L 424.5 332 Z " /><path fill="rgb(200,208,246)" stroke="rgb(200,208,246)" stroke-width="1" opacity="1" d="M 522.5 335 L 521.5 337 L 522.5 335 Z " /><path fill="rgb(200,208,246)" stroke="rgb(200,208,246)" stroke-width="1" opacity="1" d="M 178.5 336 L 179.5 338 L 178.5 336 Z " /><path fill="rgb(200,208,246)" stroke="rgb(200,208,246)" stroke-width="1" opacity="1" d="M 520.5 338 L 519.5 340 L 520.5 338 Z " /><path fill="rgb(200,208,246)" stroke="rgb(200,208,246)" stroke-width="1" opacity="1" d="M 518.5 341 L 517.5 343 L 518.5 341 Z " /><path fill="rgb(200,208,246)" stroke="rgb(200,208,246)" stroke-width="1" opacity="1" d="M 79.5 343 L 80.5 345 L 79.5 343 Z " /><path fill="rgb(200,208,246)" stroke="rgb(200,208,246)" stroke-width="1" opacity="1" d="M 82.5 347 L 83.5 349 L 82.5 347 Z " /><path fill="rgb(200,208,246)" stroke="rgb(200,208,246)" stroke-width="1" opacity="1" d="M 513.5 348 L 512.5 350 L 513.5 348 Z " /><path fill="rgb(200,208,246)" stroke="rgb(200,208,246)" stroke-width="1" opacity="1" d="M 85.5 351 L 86.5 353 L 85.5 351 Z " /><path fill="rgb(200,208,246)" stroke="rgb(200,208,246)" stroke-width="1" opacity="1" d="M 370.5 353 L 373 353.5 L 370.5 354 L 370.5 353 Z " /><path fill="rgb(200,208,246)" stroke="rgb(200,208,246)" stroke-width="1" opacity="1" d="M 509.5 353 L 507.5 356 L 509.5 353 Z " /><path fill="rgb(200,208,246)" stroke="rgb(200,208,246)" stroke-width="1" opacity="1" d="M 231.5 354 L 235 354.5 L 231.5 355 L 231.5 354 Z " /><path fill="rgb(200,208,246)" stroke="rgb(200,208,246)" stroke-width="1" opacity="1" d="M 362.5 354 L 366 354.5 L 362.5 355 L 362.5 354 Z " /><path fill="rgb(200,208,246)" stroke="rgb(200,208,246)" stroke-width="1" opacity="1" d="M 89.5 356 L 92.5 360 L 89.5 356 Z " /><path fill="rgb(200,208,246)" stroke="rgb(200,208,246)" stroke-width="1" opacity="1" d="M 504.5 359 L 500.5 364 L 504.5 359 Z " /><path fill="rgb(200,208,246)" stroke="rgb(200,208,246)" stroke-width="1" opacity="1" d="M 98.5 366 L 103.5 372 L 98.5 366 Z " /><path fill="rgb(200,208,246)" stroke="rgb(200,208,246)" stroke-width="1" opacity="1" d="M 490.5 373 L 486.5 378 L 490.5 373 Z " /><path fill="rgb(200,208,246)" stroke="rgb(200,208,246)" stroke-width="1" opacity="1" d="M 110.5 377 L 112.5 380 L 110.5 377 Z " /><path fill="rgb(200,208,246)" stroke="rgb(200,208,246)" stroke-width="1" opacity="1" d="M 482.5 380 L 480.5 383 L 482.5 380 Z " /><path fill="rgb(200,208,246)" stroke="rgb(200,208,246)" stroke-width="1" opacity="1" d="M 116.5 382 L 117.5 384 L 116.5 382 Z " /><path fill="rgb(200,208,246)" stroke="rgb(200,208,246)" stroke-width="1" opacity="1" d="M 477.5 384 L 476.5 386 L 477.5 384 Z " /><path fill="rgb(200,208,246)" stroke="rgb(200,208,246)" stroke-width="1" opacity="1" d="M 473.5 387 L 472.5 389 L 473.5 387 Z " /><path fill="rgb(200,208,246)" stroke="rgb(200,208,246)" stroke-width="1" opacity="1" d="M 124.5 388 L 125.5 390 L 124.5 388 Z " /><path fill="rgb(200,208,246)" stroke="rgb(200,208,246)" stroke-width="1" opacity="1" d="M 133.5 394 L 134.5 396 L 133.5 394 Z " /><path fill="rgb(200,208,246)" stroke="rgb(200,208,246)" stroke-width="1" opacity="1" d="M 403.5 417 L 406 417.5 L 403.5 418 L 403.5 417 Z " /><path fill="rgb(200,208,246)" stroke="rgb(200,208,246)" stroke-width="1" opacity="1" d="M 397.5 418 L 400 418.5 L 397.5 419 L 397.5 418 Z " /><path fill="rgb(200,208,246)" stroke="rgb(200,208,246)" stroke-width="1" opacity="1" d="M 204.5 419 L 208 419.5 L 204.5 420 L 204.5 419 Z " /><path fill="rgb(200,208,246)" stroke="rgb(200,208,246)" stroke-width="1" opacity="1" d="M 388.5 419 L 393 419.5 L 388.5 420 L 388.5 419 Z " /></svg>