<svg width="24" height="23" viewBox="0 0 24 23" fill="none" xmlns="http://www.w3.org/2000/svg">
<path d="M9.39849 17.0128C7.02106 17.0128 5.00919 16.1892 3.36287 14.542C1.71656 12.8948 0.892963 10.883 0.892091 8.5064C0.891218 6.12984 1.71481 4.11797 3.36287 2.47078C5.01093 0.823594 7.02281 0 9.39849 0C11.7742 0 13.7865 0.823594 15.4354 2.47078C17.0844 4.11797 17.9075 6.12984 17.9049 8.5064C17.9049 9.4661 17.7522 10.3713 17.4469 11.2219C17.1415 12.0725 16.7271 12.825 16.2036 13.4794L23.5322 20.808C23.7721 21.0479 23.8921 21.3532 23.8921 21.724C23.8921 22.0948 23.7721 22.4002 23.5322 22.6401C23.2923 22.88 22.9869 23 22.6161 23C22.2453 23 21.94 22.88 21.7001 22.6401L14.3715 15.3115C13.7171 15.835 12.9646 16.2494 12.114 16.5548C11.2634 16.8601 10.3582 17.0128 9.39849 17.0128ZM9.39849 14.3954C11.0343 14.3954 12.425 13.8231 13.5706 12.6785C14.7161 11.5338 15.2884 10.1431 15.2875 8.5064C15.2867 6.86968 14.7143 5.47943 13.5706 4.33565C12.4268 3.19186 11.0361 2.6191 9.39849 2.61735C7.7609 2.61561 6.37065 3.18837 5.22774 4.33565C4.08483 5.48292 3.51206 6.87317 3.50944 8.5064C3.50683 10.1396 4.07959 11.5303 5.22774 12.6785C6.37588 13.8266 7.76614 14.3989 9.39849 14.3954Z" fill="#9D9D9D"/>
</svg>
