<svg width="384" height="197" viewBox="0 0 384 197" fill="none" xmlns="http://www.w3.org/2000/svg">
<path d="M364 0V1.5C374.217 1.5 382.5 9.78273 382.5 20H384H385.5C385.5 8.12588 375.874 -1.5 364 -1.5V0ZM384 20H382.5V132H384H385.5V20H384ZM369 147V145.5H349V147V148.5H369V147ZM334 162H332.5V182H334H335.5V162H334ZM319 197V195.5H20V197V198.5H319V197ZM20 197V195.5C9.78273 195.5 1.5 187.217 1.5 177H0H-1.5C-1.5 188.874 8.12588 198.5 20 198.5V197ZM0 177H1.5V20H0H-1.5V177H0ZM0 20H1.5C1.5 9.78273 9.78273 1.5 20 1.5V0V-1.5C8.12588 -1.5 -1.5 8.12588 -1.5 20H0ZM20 0V1.5H364V0V-1.5H20V0ZM334 182H332.5C332.5 189.456 326.456 195.5 319 195.5V197V198.5C328.113 198.5 335.5 191.113 335.5 182H334ZM349 147V145.5C339.887 145.5 332.5 152.887 332.5 162H334H335.5C335.5 154.544 341.544 148.5 349 148.5V147ZM384 132H382.5C382.5 139.456 376.456 145.5 369 145.5V147V148.5C378.113 148.5 385.5 141.113 385.5 132H384Z" fill="#D8D8D8"/>
</svg>
