<svg width="204" height="41" viewBox="0 0 204 41" fill="none" xmlns="http://www.w3.org/2000/svg">
<mask id="mask0_734_8350" style="mask-type:luminance" maskUnits="userSpaceOnUse" x="0" y="6" width="42" height="29">
<path d="M42 6H0V35H42V6Z" fill="white"/>
</mask>
<g mask="url(#mask0_734_8350)">
<path d="M26.6001 6H15.4001C8.05471 6 2.1001 12.3254 2.1001 20.1282V20.8718C2.1001 28.6746 8.05471 35 15.4001 35H26.6001C33.9455 35 39.9001 28.6746 39.9001 20.8718V20.1282C39.9001 12.3254 33.9455 6 26.6001 6Z" fill="#759AFC"/>
<path d="M24.4999 11.2051H17.4999C12.4741 11.2051 8.3999 15.533 8.3999 20.8717C8.3999 26.2105 12.4741 30.5384 17.4999 30.5384H24.4999C29.5257 30.5384 33.5999 26.2105 33.5999 20.8717C33.5999 15.533 29.5257 11.2051 24.4999 11.2051Z" fill="white"/>
<path d="M6.3 22.7308V16.0385C6.3 14.1905 4.8897 12.6924 3.15 12.6924C1.4103 12.6924 0 14.1905 0 16.0385V22.7308C0 24.5789 1.4103 26.077 3.15 26.077C4.8897 26.077 6.3 24.5789 6.3 22.7308Z" fill="#759AFC"/>
<path d="M42.0002 22.7308V16.0385C42.0002 14.1905 40.5899 12.6924 38.8502 12.6924C37.1105 12.6924 35.7002 14.1905 35.7002 16.0385V22.7308C35.7002 24.5789 37.1105 26.077 38.8502 26.077C40.5899 26.077 42.0002 24.5789 42.0002 22.7308Z" fill="#759AFC"/>
<path d="M15.0498 23.1026C16.0163 23.1026 16.7998 21.9374 16.7998 20.5C16.7998 19.0627 16.0163 17.8975 15.0498 17.8975C14.0833 17.8975 13.2998 19.0627 13.2998 20.5C13.2998 21.9374 14.0833 23.1026 15.0498 23.1026Z" fill="#494954"/>
<path d="M26.9502 23.1026C27.9167 23.1026 28.7002 21.9374 28.7002 20.5C28.7002 19.0627 27.9167 17.8975 26.9502 17.8975C25.9837 17.8975 25.2002 19.0627 25.2002 20.5C25.2002 21.9374 25.9837 23.1026 26.9502 23.1026Z" fill="#494954"/>
</g>
<path d="M52.0664 33.56V3.88H63.9864C71.4664 3.88 74.6664 6.68001 75.0264 10.92C75.3864 13.4 74.0664 16.48 71.5464 17.56C74.6264 18.96 76.1464 22.48 75.7864 25.88C75.2664 30.8 71.9464 33.56 65.4664 33.56H52.0664ZM59.0264 10.16V15.04H65.2664C67.0264 14.92 68.0664 14.04 68.0664 12.56C68.0664 11.12 66.9864 10.16 65.0264 10.16H59.0264ZM59.0264 21.08V27.28H65.1864C67.9864 27.32 68.7864 25.92 68.7864 24.16C68.7864 22.52 67.7464 21.08 64.8664 21.08H59.0264ZM94.2605 33.56V31.64C92.9405 33 90.8605 33.84 88.5405 33.84C82.7005 33.84 77.9805 30.24 78.1805 22.44C78.4205 14.56 83.3805 10.88 88.8205 11.12C91.1405 11.24 93.0605 12.28 94.2605 13.56V11.56H101.18V33.56H94.2605ZM89.3805 27.72C91.7405 27.72 93.5405 26.6 94.0205 24.16C94.0605 24 94.1005 23.24 94.1005 23.08C94.1005 19.32 92.1005 17.24 89.5405 17.24C87.3805 17.12 85.1005 18.84 85.1005 22.44C85.1005 25.92 86.9405 27.72 89.3805 27.72Z" fill="#FF9762"/>
<path d="M114.32 33.88C108.52 33.88 103.84 30.44 103.92 22.68C104.04 15.16 108.36 10.88 114.2 11.16C116.8 11.24 118.96 12.28 120.2 13.6V3.88H127.08V33.56H120.2V31.6C118.84 33 116.68 33.88 114.32 33.88ZM115.72 27.76C118.36 27.6 119.96 25.56 119.96 23.08C119.96 19.56 117.92 17.28 115.16 17.28C113.08 17.28 110.76 18.84 110.76 22.48C110.76 26.52 113.24 27.92 115.72 27.76ZM146.018 33.56V31.64C144.698 33 142.618 33.84 140.298 33.84C134.458 33.84 129.738 30.24 129.938 22.44C130.178 14.56 135.138 10.88 140.578 11.12C142.898 11.24 144.818 12.28 146.018 13.56V11.56H152.938V33.56H146.018ZM141.138 27.72C143.498 27.72 145.298 26.6 145.778 24.16C145.818 24 145.858 23.24 145.858 23.08C145.858 19.32 143.858 17.24 141.298 17.24C139.138 17.12 136.858 18.84 136.858 22.44C136.858 25.92 138.698 27.72 141.138 27.72ZM156.198 33.56V11.56H163.198V12.84C164.198 12 166.198 11.2 168.118 11.04H168.758C174.118 11.04 176.598 14.64 176.638 20.12V33.56H169.638V23.12C169.638 18.52 168.518 17.72 166.558 17.8C165.038 17.88 164.358 18.28 163.198 19.16V33.56H156.198ZM190.75 26.56C193.63 26.52 195.19 24.64 195.19 22.16C195.19 18.68 193.15 17.08 190.75 16.96C188.79 16.84 186.47 18.12 186.31 21.8C186.15 25.08 188.27 26.6 190.75 26.56ZM202.31 29.76C202.31 33.88 201.75 36.64 198.55 38.92C196.07 40.6 192.51 40.96 188.95 40.8C186.51 40.68 183.35 39.96 180.39 38.24L183.27 32.8C186.03 34.36 188.63 35.2 191.71 34.88C194.39 34.56 195.31 33 195.31 31.56V30.6C194.27 31.72 191.99 32.48 189.67 32.48C184.95 32.48 179.27 29.32 179.51 22.12C179.79 14.2 184.55 10.76 190.07 11.04C192.39 11.12 194.15 11.96 195.31 13.12V11.56H202.31V29.76Z" fill="#759AFC"/>
</svg>
