<svg width="17" height="16" viewBox="0 0 17 16" fill="none" xmlns="http://www.w3.org/2000/svg">
<path d="M16.1196 7.5C16.1196 7.69698 16.0808 7.89204 16.0054 8.07403C15.9301 8.25601 15.8196 8.42137 15.6803 8.56066C15.541 8.69995 15.3756 8.81044 15.1937 8.88582C15.0117 8.9612 14.8166 9 14.6196 9C14.4226 9 14.2276 8.9612 14.0456 8.88582C13.8636 8.81044 13.6983 8.69995 13.559 8.56066C13.4197 8.42137 13.3092 8.25601 13.2338 8.07403C13.1584 7.89204 13.1196 7.69698 13.1196 7.5V1.5C13.1196 1.10218 13.2777 0.720645 13.559 0.439341C13.8403 0.158036 14.2218 0 14.6196 0C15.0175 0 15.399 0.158036 15.6803 0.439341C15.9616 0.720645 16.1196 1.10218 16.1196 1.5V7.5ZM12.1196 7.667V2.237C12.1198 1.86534 12.0164 1.50098 11.8211 1.1848C11.6257 0.868621 11.3461 0.613134 11.0136 0.447001L10.9636 0.422001C10.4087 0.14467 9.79696 0.000197411 9.17663 0H3.76063C3.2981 -0.000183105 2.84981 0.159952 2.49207 0.45314C2.13434 0.746328 1.88929 1.15444 1.79863 1.608L0.598629 7.608C0.540639 7.89813 0.547742 8.19751 0.619425 8.48456C0.691108 8.77161 0.825583 9.03918 1.01316 9.26799C1.20074 9.49679 1.43675 9.68113 1.70417 9.80771C1.97159 9.9343 2.26376 9.99997 2.55963 10H6.11963V14C6.11963 14.5304 6.33034 15.0391 6.70542 15.4142C7.08049 15.7893 7.5892 16 8.11963 16C8.38485 16 8.6392 15.8946 8.82674 15.7071C9.01427 15.5196 9.11963 15.2652 9.11963 15V14.333C9.11963 13.4675 9.40034 12.6254 9.91963 11.933L11.3196 10.067C11.8389 9.37462 12.1196 8.53248 12.1196 7.667Z" fill="#FF8040"/>
</svg>
