<svg width="31" height="31" viewBox="0 0 31 31" fill="none" xmlns="http://www.w3.org/2000/svg">
<path d="M16.322 18.6621H14.486V17.8341C14.486 16.6281 14.828 16.0701 16.142 14.7561C17.438 13.4601 17.888 13.1541 17.888 12.0201V11.7861C17.888 10.8681 17.24 10.0761 15.746 10.0761C14.576 10.0761 13.586 10.5801 12.83 11.3721L11.75 10.1301C12.686 9.14007 13.946 8.49207 15.71 8.49207C18.212 8.49207 19.688 9.80607 19.688 11.7681V12.0201C19.688 13.7841 18.572 14.6481 17.456 15.7101C16.664 16.4661 16.322 16.9521 16.322 17.8881V18.6621ZM14.396 22.4061V20.3361H16.448V22.4061H14.396Z" fill="#17171B"/>
<path d="M15.8 29.6C23.4216 29.6 29.6 23.4216 29.6 15.8C29.6 8.17848 23.4216 2 15.8 2C8.17848 2 2 8.17848 2 15.8C2 23.4216 8.17848 29.6 15.8 29.6Z" stroke="#17171B" stroke-width="2.5" stroke-linecap="round" stroke-linejoin="round"/>
</svg>
