<svg width="188" height="52" viewBox="0 0 188 52" fill="none" xmlns="http://www.w3.org/2000/svg">
<path d="M16.0556 11.5933C18.5801 11.5933 20.8556 12.1978 22.8823 13.4067C24.9445 14.6156 26.5623 16.34 27.7356 18.58C28.909 20.7844 29.4956 23.3267 29.4956 26.2067C29.4956 29.1222 28.909 31.7 27.7356 33.94C26.5623 36.1444 24.9445 37.8511 22.8823 39.06C20.8556 40.2689 18.5801 40.8733 16.0556 40.8733C14.1001 40.8733 12.3578 40.5 10.829 39.7533C9.30007 39.0067 8.03785 37.9222 7.04229 36.5V40.5H0.428958V0.926665H7.36229V15.7533C9.38896 12.98 12.2867 11.5933 16.0556 11.5933ZM14.9356 34.9C17.1401 34.9 18.9534 34.1178 20.3756 32.5533C21.8334 30.9533 22.5623 28.8378 22.5623 26.2067C22.5623 23.5756 21.8334 21.4778 20.3756 19.9133C18.9534 18.3489 17.1401 17.5667 14.9356 17.5667C12.6956 17.5667 10.8467 18.3489 9.38896 19.9133C7.96674 21.4778 7.25563 23.5756 7.25563 26.2067C7.25563 28.8378 7.96674 30.9533 9.38896 32.5533C10.8467 34.1178 12.6956 34.9 14.9356 34.9ZM44.8456 11.5933C48.899 11.5933 51.9923 12.6244 54.1256 14.6867C56.2945 16.7133 57.379 19.7711 57.379 23.86V40.5H50.9256V36.6067C50.179 37.9933 49.0767 39.06 47.619 39.8067C46.1612 40.5178 44.419 40.8733 42.3923 40.8733C39.299 40.8733 36.8456 40.0911 35.0323 38.5267C33.219 36.9267 32.3123 34.8644 32.3123 32.34C32.3123 29.7444 33.2367 27.7 35.0856 26.2067C36.9345 24.6778 39.7967 23.9133 43.6723 23.9133H50.499C50.499 22.7044 50.3212 21.7267 49.9656 20.98C49.1834 18.5622 47.1745 17.3533 43.939 17.3533C42.4101 17.3533 40.9167 17.62 39.459 18.1533C38.0367 18.6511 36.8101 19.3267 35.779 20.18L33.2723 15.1667C34.7301 14.0289 36.4723 13.1578 38.499 12.5533C40.5612 11.9133 42.6767 11.5933 44.8456 11.5933ZM44.0456 35.9667C45.5745 35.9667 46.9078 35.5933 48.0456 34.8467C49.1834 34.1 50.0012 33.0156 50.499 31.5933V28.18H44.419C40.8278 28.18 39.0323 29.46 39.0323 32.02C39.0323 33.2289 39.4767 34.1889 40.3656 34.9C41.2545 35.6111 42.4812 35.9667 44.0456 35.9667Z" fill="#FF9762"/>
<path d="M91.025 40.5H84.465V36.5C83.4694 37.9222 82.2072 39.0067 80.6783 39.7533C79.1494 40.5 77.425 40.8733 75.505 40.8733C72.945 40.8733 70.6339 40.2689 68.5717 39.06C66.5094 37.8511 64.8917 36.1444 63.7183 33.94C62.545 31.7 61.9583 29.1222 61.9583 26.2067C61.9583 23.3267 62.545 20.7844 63.7183 18.58C64.8917 16.34 66.5094 14.6156 68.5717 13.4067C70.6339 12.1978 72.945 11.5933 75.505 11.5933C77.3539 11.5933 79.0072 11.9489 80.465 12.66C81.9583 13.3356 83.185 14.3667 84.145 15.7533V0.926665H91.025V40.5ZM76.625 34.9C78.8294 34.9 80.6606 34.1178 82.1183 32.5533C83.5761 30.9533 84.305 28.8378 84.305 26.2067C84.305 23.6111 83.5761 21.5311 82.1183 19.9667C80.6606 18.3667 78.8294 17.5667 76.625 17.5667C74.385 17.5667 72.5361 18.3489 71.0783 19.9133C69.6206 21.4778 68.8917 23.5756 68.8917 26.2067C68.8917 28.8378 69.6206 30.9533 71.0783 32.5533C72.5361 34.1178 74.385 34.9 76.625 34.9ZM108.502 11.5933C112.555 11.5933 115.649 12.6244 117.782 14.6867C119.951 16.7133 121.035 19.7711 121.035 23.86V40.5H114.582V36.6067C113.835 37.9933 112.733 39.06 111.275 39.8067C109.817 40.5178 108.075 40.8733 106.049 40.8733C102.955 40.8733 100.502 40.0911 98.6885 38.5267C96.8752 36.9267 95.9685 34.8644 95.9685 32.34C95.9685 29.7444 96.893 27.7 98.7419 26.2067C100.591 24.6778 103.453 23.9133 107.329 23.9133H114.155C114.155 22.7044 113.977 21.7267 113.622 20.98C112.84 18.5622 110.831 17.3533 107.595 17.3533C106.066 17.3533 104.573 17.62 103.115 18.1533C101.693 18.6511 100.466 19.3267 99.4352 20.18L96.9285 15.1667C98.3863 14.0289 100.129 13.1578 102.155 12.5533C104.217 11.9133 106.333 11.5933 108.502 11.5933ZM107.702 35.9667C109.231 35.9667 110.564 35.5933 111.702 34.8467C112.84 34.1 113.657 33.0156 114.155 31.5933V28.18H108.075C104.484 28.18 102.689 29.46 102.689 32.02C102.689 33.2289 103.133 34.1889 104.022 34.9C104.911 35.6111 106.137 35.9667 107.702 35.9667ZM142.403 11.5933C145.781 11.5933 148.483 12.6422 150.51 14.74C152.572 16.8378 153.603 19.9489 153.603 24.0733V40.5H146.723V25.1933C146.723 22.74 146.19 20.9089 145.123 19.7C144.092 18.4556 142.581 17.8333 140.59 17.8333C138.385 17.8333 136.625 18.5622 135.31 20.02C134.03 21.4422 133.39 23.5044 133.39 26.2067V40.5H126.51V11.9667H133.07V15.9133C134.101 14.5267 135.416 13.46 137.016 12.7133C138.652 11.9667 140.448 11.5933 142.403 11.5933ZM187.539 36.0733C187.539 46.1711 182.597 51.22 172.712 51.22C170.117 51.22 167.663 50.8644 165.352 50.1533C163.041 49.4778 161.121 48.4822 159.592 47.1667L162.366 41.9933C163.575 43.0244 165.05 43.8422 166.792 44.4467C168.57 45.0867 170.366 45.4067 172.179 45.4067C175.095 45.4067 177.228 44.7133 178.579 43.3267C179.93 41.94 180.606 39.8244 180.606 36.98V34.9533C179.61 36.34 178.33 37.3889 176.766 38.1C175.201 38.8111 173.459 39.1667 171.539 39.1667C169.05 39.1667 166.775 38.5978 164.712 37.46C162.65 36.2867 161.015 34.6511 159.806 32.5533C158.597 30.4556 157.992 28.0556 157.992 25.3533C157.992 22.6511 158.597 20.2689 159.806 18.2067C161.015 16.1089 162.65 14.4911 164.712 13.3533C166.775 12.18 169.05 11.5933 171.539 11.5933C173.601 11.5933 175.432 11.9844 177.032 12.7667C178.632 13.5489 179.948 14.7044 180.979 16.2333V11.9667H187.539V36.0733ZM172.872 33.2467C175.148 33.2467 177.015 32.5178 178.472 31.06C179.966 29.6022 180.712 27.7 180.712 25.3533C180.712 23.0422 179.966 21.1756 178.472 19.7533C177.015 18.2956 175.148 17.5667 172.872 17.5667C170.597 17.5667 168.712 18.2956 167.219 19.7533C165.726 21.1756 164.979 23.0422 164.979 25.3533C164.979 27.6644 165.726 29.5667 167.219 31.06C168.712 32.5178 170.597 33.2467 172.872 33.2467Z" fill="#759AFC"/>
</svg>
