<svg width="188" height="51" viewBox="0 0 188 51" fill="none" xmlns="http://www.w3.org/2000/svg">
<path d="M16.0556 11.0933C18.5801 11.0933 20.8556 11.6978 22.8823 12.9067C24.9445 14.1156 26.5623 15.84 27.7356 18.08C28.909 20.2844 29.4956 22.8267 29.4956 25.7067C29.4956 28.6222 28.909 31.2 27.7356 33.44C26.5623 35.6444 24.9445 37.3511 22.8823 38.56C20.8556 39.7689 18.5801 40.3733 16.0556 40.3733C14.1001 40.3733 12.3578 40 10.829 39.2533C9.30007 38.5067 8.03785 37.4222 7.04229 36V40H0.428958V0.426665H7.36229V15.2533C9.38896 12.48 12.2867 11.0933 16.0556 11.0933ZM14.9356 34.4C17.1401 34.4 18.9534 33.6178 20.3756 32.0533C21.8334 30.4533 22.5623 28.3378 22.5623 25.7067C22.5623 23.0756 21.8334 20.9778 20.3756 19.4133C18.9534 17.8489 17.1401 17.0667 14.9356 17.0667C12.6956 17.0667 10.8467 17.8489 9.38896 19.4133C7.96674 20.9778 7.25563 23.0756 7.25563 25.7067C7.25563 28.3378 7.96674 30.4533 9.38896 32.0533C10.8467 33.6178 12.6956 34.4 14.9356 34.4ZM44.8456 11.0933C48.899 11.0933 51.9923 12.1244 54.1256 14.1867C56.2945 16.2133 57.379 19.2711 57.379 23.36V40H50.9256V36.1067C50.179 37.4933 49.0767 38.56 47.619 39.3067C46.1612 40.0178 44.419 40.3733 42.3923 40.3733C39.299 40.3733 36.8456 39.5911 35.0323 38.0267C33.219 36.4267 32.3123 34.3644 32.3123 31.84C32.3123 29.2444 33.2367 27.2 35.0856 25.7067C36.9345 24.1778 39.7967 23.4133 43.6723 23.4133H50.499C50.499 22.2044 50.3212 21.2267 49.9656 20.48C49.1834 18.0622 47.1745 16.8533 43.939 16.8533C42.4101 16.8533 40.9167 17.12 39.459 17.6533C38.0367 18.1511 36.8101 18.8267 35.779 19.68L33.2723 14.6667C34.7301 13.5289 36.4723 12.6578 38.499 12.0533C40.5612 11.4133 42.6767 11.0933 44.8456 11.0933ZM44.0456 35.4667C45.5745 35.4667 46.9078 35.0933 48.0456 34.3467C49.1834 33.6 50.0012 32.5156 50.499 31.0933V27.68H44.419C40.8278 27.68 39.0323 28.96 39.0323 31.52C39.0323 32.7289 39.4767 33.6889 40.3656 34.4C41.2545 35.1111 42.4812 35.4667 44.0456 35.4667Z" fill="#FF8040"/>
<path d="M91.025 40H84.465V36C83.4694 37.4222 82.2072 38.5067 80.6783 39.2533C79.1494 40 77.425 40.3733 75.505 40.3733C72.945 40.3733 70.6339 39.7689 68.5717 38.56C66.5094 37.3511 64.8917 35.6444 63.7183 33.44C62.545 31.2 61.9583 28.6222 61.9583 25.7067C61.9583 22.8267 62.545 20.2844 63.7183 18.08C64.8917 15.84 66.5094 14.1156 68.5717 12.9067C70.6339 11.6978 72.945 11.0933 75.505 11.0933C77.3539 11.0933 79.0072 11.4489 80.465 12.16C81.9583 12.8356 83.185 13.8667 84.145 15.2533V0.426665H91.025V40ZM76.625 34.4C78.8294 34.4 80.6606 33.6178 82.1183 32.0533C83.5761 30.4533 84.305 28.3378 84.305 25.7067C84.305 23.1111 83.5761 21.0311 82.1183 19.4667C80.6606 17.8667 78.8294 17.0667 76.625 17.0667C74.385 17.0667 72.5361 17.8489 71.0783 19.4133C69.6206 20.9778 68.8917 23.0756 68.8917 25.7067C68.8917 28.3378 69.6206 30.4533 71.0783 32.0533C72.5361 33.6178 74.385 34.4 76.625 34.4ZM108.502 11.0933C112.555 11.0933 115.649 12.1244 117.782 14.1867C119.951 16.2133 121.035 19.2711 121.035 23.36V40H114.582V36.1067C113.835 37.4933 112.733 38.56 111.275 39.3067C109.817 40.0178 108.075 40.3733 106.049 40.3733C102.955 40.3733 100.502 39.5911 98.6885 38.0267C96.8752 36.4267 95.9685 34.3644 95.9685 31.84C95.9685 29.2444 96.893 27.2 98.7419 25.7067C100.591 24.1778 103.453 23.4133 107.329 23.4133H114.155C114.155 22.2044 113.977 21.2267 113.622 20.48C112.84 18.0622 110.831 16.8533 107.595 16.8533C106.066 16.8533 104.573 17.12 103.115 17.6533C101.693 18.1511 100.466 18.8267 99.4352 19.68L96.9285 14.6667C98.3863 13.5289 100.129 12.6578 102.155 12.0533C104.217 11.4133 106.333 11.0933 108.502 11.0933ZM107.702 35.4667C109.231 35.4667 110.564 35.0933 111.702 34.3467C112.84 33.6 113.657 32.5156 114.155 31.0933V27.68H108.075C104.484 27.68 102.689 28.96 102.689 31.52C102.689 32.7289 103.133 33.6889 104.022 34.4C104.911 35.1111 106.137 35.4667 107.702 35.4667ZM142.403 11.0933C145.781 11.0933 148.483 12.1422 150.51 14.24C152.572 16.3378 153.603 19.4489 153.603 23.5733V40H146.723V24.6933C146.723 22.24 146.19 20.4089 145.123 19.2C144.092 17.9556 142.581 17.3333 140.59 17.3333C138.385 17.3333 136.625 18.0622 135.31 19.52C134.03 20.9422 133.39 23.0044 133.39 25.7067V40H126.51V11.4667H133.07V15.4133C134.101 14.0267 135.416 12.96 137.016 12.2133C138.652 11.4667 140.448 11.0933 142.403 11.0933ZM187.539 35.5733C187.539 45.6711 182.597 50.72 172.712 50.72C170.117 50.72 167.663 50.3644 165.352 49.6533C163.041 48.9778 161.121 47.9822 159.592 46.6667L162.366 41.4933C163.575 42.5244 165.05 43.3422 166.792 43.9467C168.57 44.5867 170.366 44.9067 172.179 44.9067C175.095 44.9067 177.228 44.2133 178.579 42.8267C179.93 41.44 180.606 39.3244 180.606 36.48V34.4533C179.61 35.84 178.33 36.8889 176.766 37.6C175.201 38.3111 173.459 38.6667 171.539 38.6667C169.05 38.6667 166.775 38.0978 164.712 36.96C162.65 35.7867 161.015 34.1511 159.806 32.0533C158.597 29.9556 157.992 27.5556 157.992 24.8533C157.992 22.1511 158.597 19.7689 159.806 17.7067C161.015 15.6089 162.65 13.9911 164.712 12.8533C166.775 11.68 169.05 11.0933 171.539 11.0933C173.601 11.0933 175.432 11.4844 177.032 12.2667C178.632 13.0489 179.948 14.2044 180.979 15.7333V11.4667H187.539V35.5733ZM172.872 32.7467C175.148 32.7467 177.015 32.0178 178.472 30.56C179.966 29.1022 180.712 27.2 180.712 24.8533C180.712 22.5422 179.966 20.6756 178.472 19.2533C177.015 17.7956 175.148 17.0667 172.872 17.0667C170.597 17.0667 168.712 17.7956 167.219 19.2533C165.726 20.6756 164.979 22.5422 164.979 24.8533C164.979 27.1644 165.726 29.0667 167.219 30.56C168.712 32.0178 170.597 32.7467 172.872 32.7467Z" fill="#0046FF"/>
</svg>
