<svg width="20" height="20" viewBox="0 0 20 20" fill="none" xmlns="http://www.w3.org/2000/svg">
<path d="M10.3404 11.8666H9.14302V11.3266C9.14302 10.54 9.36607 10.1761 10.223 9.31917C11.0682 8.47395 11.3617 8.27438 11.3617 7.53482V7.38221C11.3617 6.78351 10.9391 6.26699 9.96476 6.26699C9.20172 6.26699 8.55606 6.59569 8.06302 7.11221L7.35864 6.30221C7.96908 5.65656 8.79085 5.23395 9.94128 5.23395C11.573 5.23395 12.5356 6.0909 12.5356 7.37047V7.53482C12.5356 8.68525 11.8078 9.24873 11.08 9.94134C10.5635 10.4344 10.3404 10.7513 10.3404 11.3618V11.8666ZM9.08433 14.3083V12.9583H10.4226V14.3083H9.08433Z" fill="#17171B"/>
<path d="M10 19C14.9706 19 19 14.9706 19 10C19 5.02944 14.9706 1 10 1C5.02944 1 1 5.02944 1 10C1 14.9706 5.02944 19 10 19Z" stroke="#17171B" stroke-width="2" stroke-linecap="round" stroke-linejoin="round"/>
</svg>
